<svg width="249" height="285" viewBox="0 0 249 285" fill="none" xmlns="http://www.w3.org/2000/svg">
<path fill-rule="evenodd" clip-rule="evenodd" d="M96 161.914L99.9769 158.003L105.172 163.111L110.366 158.003L114.343 161.914L109.148 167.022L114.343 172.13L110.366 176.041L105.172 170.933L99.9769 176.041L96 172.13L101.195 167.022L96 161.914Z" fill="#DFE1E5"/>
<path fill-rule="evenodd" clip-rule="evenodd" d="M143.2 172.127L139.223 176.038L134.028 170.93L128.833 176.038L124.856 172.127L130.051 167.019L124.856 161.911L128.833 158L134.028 163.108L139.223 158L143.2 161.911L138.005 167.019L143.2 172.127Z" fill="#DFE1E5"/>
<line x1="1.5" y1="8" x2="1.49999" y2="128" stroke="#DFE1E5" stroke-width="3"/>
<line x1="25.5" y1="6.55671e-08" x2="25.5" y2="64" stroke="#DFE1E5" stroke-width="3"/>
<line x1="53.5" y1="6.55671e-08" x2="53.5" y2="36" stroke="#DFE1E5" stroke-width="3"/>
<line y1="-1.5" x2="120" y2="-1.5" transform="matrix(4.37114e-08 1 1 -4.37114e-08 249 8)" stroke="#DFE1E5" stroke-width="3"/>
<line y1="-1.5" x2="64" y2="-1.5" transform="matrix(4.37114e-08 1 1 -4.37114e-08 225 0)" stroke="#DFE1E5" stroke-width="3"/>
<line y1="-1.5" x2="36" y2="-1.5" transform="matrix(4.37114e-08 1 1 -4.37114e-08 197 0)" stroke="#DFE1E5" stroke-width="3"/>
<g clip-path="url(#clip0)">
<path d="M149.456 220.15V216.563C150.469 215.744 151.444 214.848 152.38 213.912C159.872 205.663 164.589 195.273 165.87 184.203C172.603 183.177 178.672 179.569 182.791 174.144C188.444 166.151 188.951 154.65 184.233 140.224C183.956 139.392 183.407 138.678 182.674 138.197L180.529 136.754C180.846 123.738 176.347 111.063 167.897 101.158C157.409 89.3447 141.307 83.3795 119.981 83.3015C98.693 83.3015 82.5519 89.3447 72.0641 101.002C63.6139 110.907 59.1156 123.582 59.4319 136.598L57.2876 138.041C56.5546 138.522 56.0054 139.236 55.7281 140.068C51.0105 154.572 51.5173 165.995 57.1706 173.988C61.2736 179.451 67.3426 183.101 74.0915 184.164C75.3771 195.251 80.1093 205.656 87.6204 213.912C88.5488 214.846 89.5245 215.731 90.5445 216.563V220.15C75.612 223.035 15.9991 237.032 17.0128 276.8C17.0128 278.953 18.7585 280.699 20.9116 280.699H219.089C221.242 280.699 222.987 278.953 222.987 276.8C224.001 237.032 164.388 223.035 149.456 220.15ZM71.7522 175.47C68.4392 174.357 65.5516 172.246 63.4867 169.426L63.6816 169.465C59.7828 163.773 59.4319 155.157 62.9019 143.772L65.748 141.862C66.9454 141.063 67.6048 139.669 67.4635 138.236C66.8075 126.583 70.5977 115.115 78.0683 106.149C86.8796 96.1676 101.032 91.1771 119.981 91.0992C138.929 91.0212 153.082 96.1676 162.049 106.149C169.519 115.115 173.31 126.583 172.654 138.236C172.512 139.669 173.172 141.063 174.369 141.862L177.215 143.772C180.685 155.118 180.451 163.773 176.436 169.465C174.356 172.288 171.456 174.398 168.131 175.509C172.834 170.157 175.132 163.109 174.486 156.015C173.756 151.746 171.53 147.877 168.209 145.098C166.533 106.11 139.202 101.743 127.427 101.743C124.935 101.736 122.446 101.918 119.981 102.289C117.516 101.918 115.026 101.736 112.534 101.743C100.837 101.743 73.5457 106.032 71.7522 145.098C68.4095 147.854 66.1569 151.71 65.3971 155.976C64.747 163.071 67.0454 170.121 71.7522 175.47ZM160.45 143.499C144.09 144.445 127.833 140.363 113.859 131.803C112.278 130.692 110.121 130.908 108.791 132.31C100.993 140.692 86.7627 142.642 79.9007 143.07C82.0061 115.506 98.693 109.502 112.729 109.502C114.963 109.486 117.194 109.668 119.396 110.047C119.91 110.153 120.441 110.153 120.955 110.047C123.157 109.669 125.388 109.486 127.622 109.502C141.541 109.502 158.306 115.662 160.255 143.46L160.45 143.499ZM81.2653 176.21L81.4213 176.249C81.4296 175.288 81.0826 174.358 80.4466 173.637C75.1052 167.516 72.6489 161.941 73.3117 157.34C73.6295 154.778 74.8951 152.427 76.8597 150.751C82.0061 150.751 100.253 149.776 111.949 139.678C125.122 147.251 140.032 151.281 155.226 151.375C157.838 151.375 160.489 151.375 163.257 150.946C165.168 152.578 166.417 154.852 166.766 157.34C167.429 161.863 164.973 167.516 159.632 173.637C158.996 174.358 158.649 175.288 158.657 176.249C158.657 176.249 158.657 177.029 158.657 178.277L135.966 190.441C131.463 186.178 124.356 186.372 120.092 190.875C115.829 195.378 116.023 202.486 120.526 206.749C125.03 211.012 132.137 210.818 136.4 206.315C138.376 204.228 139.476 201.463 139.475 198.59C139.492 198.239 139.492 197.888 139.475 197.537L157.37 187.946C155.834 195.634 152.22 202.754 146.921 208.532C140.01 215.186 130.654 218.686 121.072 218.201H119.123C109.561 218.675 100.226 215.193 93.3127 208.571C80.9924 196.289 81.2653 176.405 81.2653 176.21ZM131.677 198.59C131.677 200.506 130.123 202.06 128.207 202.06C126.291 202.06 124.737 200.506 124.737 198.59C124.737 196.673 126.291 195.12 128.207 195.12C130.123 195.12 131.677 196.673 131.677 198.59ZM116.082 272.667H24.9274C28.0074 243.387 75.612 231.145 90.5055 227.987V234.966C90.5055 243.816 101.266 250.561 116.082 251.692V272.667V272.667ZM98.3032 234.966V234.849V221.515C104.784 224.52 111.863 226.013 119.006 225.881H120.955C128.098 226.013 135.177 224.52 141.658 221.515V234.966C141.658 238.67 133.198 244.011 119.981 244.011C106.764 244.011 98.3032 238.67 98.3032 234.966ZM123.879 272.784V251.653C138.695 250.639 149.456 243.855 149.456 234.927V228.104C164.466 231.223 211.837 243.465 215.034 272.784H123.879Z" fill="#DFE1E5"/>
</g>
<defs>
<clipPath id="clip0">
<rect width="206" height="206" fill="white" transform="translate(17 79)"/>
</clipPath>
</defs>
</svg>
